<svg xmlns="http://www.w3.org/2000/svg" xmlns:xlink="http://www.w3.org/1999/xlink" viewBox="0 0 1807.66 1908.43"><defs><style>.cls-1,.cls-12,.cls-13,.cls-4,.cls-9{fill:none;}.cls-2{fill:#bd2026;stroke-width:13.55px;}.cls-12,.cls-14,.cls-2{stroke:#421111;}.cls-12,.cls-13,.cls-14,.cls-2,.cls-4,.cls-9{stroke-miterlimit:3.86;}.cls-3,.cls-7{fill:#421111;}.cls-10,.cls-3,.cls-8{fill-rule:evenodd;}.cls-13,.cls-4{stroke:#231f20;}.cls-4,.cls-9{stroke-width:1.99px;}.cls-5{clip-path:url(#clip-path);}.cls-10,.cls-6{fill:#fee936;}.cls-11,.cls-14,.cls-8{fill:#fff;}.cls-9{stroke:#fff;}.cls-12,.cls-14{stroke-width:7.7px;}.cls-13{stroke-width:3.85px;}.cls-15{fill:#231f20;}</style><clipPath id="clip-path"><path class="cls-1" d="M95,214.18S78.1,873.75,196.58,1108.11,582.47,1684,860.05,1794.46c0,0,582.23-304.68,710.85-863.81,0,0,50.78-639.45,27.09-706.41,0,0-213.24-73.65-297.88-207.58,0,0-169.24,164.05-490.85,164.05S396.31,13.31,396.31,13.31,281.22,194.1,95,214.18"/></clipPath></defs><title>Logo SD Santo Mikael</title><g id="Layer_2" data-name="Layer 2"><g id="Layer_1-2" data-name="Layer 1"><path class="cls-2" d="M396.3,13.32S281.21,194.09,95,214.19c0,0-16.91,659.56,101.57,893.92S582.47,1684,860,1794.46c0,0,582.25-304.68,710.87-863.81,0,0,50.77-639.45,27.09-706.41,0,0-213.26-73.65-297.88-207.59,0,0-169.26,164.06-490.85,164.06S396.3,13.32,396.3,13.32Z"/><path class="cls-3" d="M516.47,231.77s-133.72,72-152.34,153.17c0,0-27.9,1.68-36.39,1.68l-91.38-51.06L167,458.59,255,482s33,16.75,48.24,1.67c0,0,2.13,23.45,27.07,27.22s62.22,5.44,62.22,5.44,41.46-7.95,45.27-19.26l47.39,23.45L563,392.49,420.85,395s-2.13-6.69.83-8.37,55.43-44.37,71.1-74.91,27.5-75.34,27.5-75.34l.83-5.86Z"/><path class="cls-4" d="M516.47,231.77s-133.72,72-152.34,153.17c0,0-27.9,1.68-36.39,1.68l-91.38-51.06L167,458.59,255,482s33,16.75,48.24,1.67c0,0,2.13,23.45,27.07,27.22s62.22,5.44,62.22,5.44,41.46-7.95,45.27-19.26l47.39,23.45L563,392.49,420.85,395s-2.13-6.69.83-8.37,55.43-44.37,71.1-74.91,27.5-75.34,27.5-75.34l.83-5.86Z"/><g class="cls-5"><rect class="cls-6" x="729.73" y="125.41" width="77.86" height="1777.93" rx="5.09" ry="5.09"/><path class="cls-7" d="M802.5,130.5V1898.25H734.82V130.5H802.5m0-10.18H734.82a10.18,10.18,0,0,0-10.18,10.18V1898.25a10.18,10.18,0,0,0,10.18,10.18H802.5a10.18,10.18,0,0,0,10.18-10.18V130.5a10.18,10.18,0,0,0-10.18-10.18Z"/><rect class="cls-6" x="651.84" y="128.74" width="44.04" height="1774.59" rx="5.09" ry="5.09"/><path class="cls-7" d="M690.79,133.83V1898.24H656.93V133.83h33.86m0-10.18H656.93a10.18,10.18,0,0,0-10.18,10.18V1898.24a10.18,10.18,0,0,0,10.18,10.18h33.86A10.18,10.18,0,0,0,701,1898.24V133.83a10.18,10.18,0,0,0-10.18-10.18Z"/><rect class="cls-6" x="5.09" y="547.37" width="1797.48" height="77.14" rx="5.09" ry="5.09"/><path class="cls-7" d="M1797.48,552.46v67H10.18v-67h1787.3m0-10.18H10.18A10.18,10.18,0,0,0,0,552.46v67A10.18,10.18,0,0,0,10.18,629.6h1787.3a10.18,10.18,0,0,0,10.18-10.18v-67a10.18,10.18,0,0,0-10.18-10.18Z"/><rect class="cls-6" x="5.09" y="641.15" width="1797.48" height="77.14" rx="5.09" ry="5.09"/><path class="cls-7" d="M1797.48,646.24v67H10.18v-67h1787.3m0-10.18H10.18A10.18,10.18,0,0,0,0,646.24v67a10.18,10.18,0,0,0,10.18,10.18h1787.3a10.18,10.18,0,0,0,10.18-10.18v-67a10.18,10.18,0,0,0-10.18-10.18Z"/></g><path class="cls-8" d="M411.54,393.74l-49.94,28,35.53,2.08s17.77,1.26,19.05-6.27,5.49-18-.42-21.34Z"/><path class="cls-9" d="M411.54,393.74l-49.94,28,35.53,2.08s17.77,1.26,19.05-6.27,5.49-18-.42-21.34Z"/><path class="cls-8" d="M353.56,390.38s-5.49,42.27-30,25.95c0,0-5.51-18,5.06-21.76s25-4.19,25-4.19"/><path class="cls-9" d="M353.56,390.38s-5.49,42.27-30,25.95c0,0-5.51-18,5.06-21.76S353.56,390.38,353.56,390.38Z"/><path class="cls-10" d="M332.41,431h77.85s4.24,19.66,8,23.43,17.37,16.32,16.51,26.79-9.31,19.65-16.09,22.18-36.39,7.95-52.88,7.54-55-6.28-54.58-25.54S320.14,464,320.14,464s8.88-8,9.3-14.64,3-18.42,3-18.42"/><path class="cls-9" d="M332.41,431h77.85s4.24,19.66,8,23.43,17.37,16.32,16.51,26.79-9.31,19.65-16.09,22.18-36.39,7.95-52.88,7.54-55-6.28-54.58-25.54S320.14,464,320.14,464s8.88-8,9.3-14.64S332.41,431,332.41,431Z"/><path class="cls-8" d="M502.09,482.87s-17.36-10.88-5.93-31.8-5.09-23.86-10.16-23.86-12.69,12.14-13.13,22.61,14.41,28.44,19.06,32.63a66.45,66.45,0,0,1,6.35,6.28l-16.09,23.44-38.07-20.09s-2.13-23.85-8.46-32.24-14.81-17.58-14.81-17.58-5.09-12.11-.86-18,8.9-18,8-23l121-.82Z"/><path class="cls-9" d="M502.09,482.87s-17.36-10.88-5.93-31.8-5.09-23.86-10.16-23.86-12.69,12.14-13.13,22.61,14.41,28.44,19.06,32.63a66.45,66.45,0,0,1,6.35,6.28l-16.09,23.44-38.07-20.09s-2.13-23.85-8.46-32.24-14.81-17.58-14.81-17.58-5.09-12.11-.86-18,8.9-18,8-23l121-.82Z"/><path class="cls-8" d="M318.85,387.87s-8,30.13,4.25,41.87c0,0-9.74,65.28-52.48,51.45l-95.19-25.53L237.2,346l67.27,33.49Z"/><path class="cls-9" d="M318.85,387.87s-8,30.13,4.25,41.87c0,0-9.74,65.28-52.48,51.45l-95.19-25.53L237.2,346l67.27,33.49Z"/><rect class="cls-11" x="415.33" y="332.64" width="40.2" height="10.04"/><rect class="cls-9" x="415.33" y="332.64" width="40.2" height="10.04"/><rect class="cls-11" x="409.4" y="352.31" width="25.39" height="9.62"/><rect class="cls-9" x="409.4" y="352.31" width="25.39" height="9.62"/><rect class="cls-11" x="395.03" y="373.66" width="14.38" height="9.21"/><rect class="cls-9" x="395.03" y="373.66" width="14.38" height="9.21"/><path class="cls-11" d="M464.84,300.61a4,4,0,1,1,4,4,4,4,0,0,1-4-4"/><path class="cls-9" d="M464.84,300.61a4,4,0,1,1,4,4A4,4,0,0,1,464.84,300.61Z"/><path class="cls-11" d="M476.32,275.35c1-2.69,5.17-3.65,9.2-2.1s6.45,4.95,5.41,7.64-5.18,3.65-9.21,2.14-6.44-5-5.4-7.68"/><path class="cls-9" d="M476.32,275.35c1-2.69,5.17-3.65,9.2-2.1s6.45,4.95,5.41,7.64-5.18,3.65-9.21,2.14S475.28,278.05,476.32,275.35Z"/><path class="cls-8" d="M880.35,507.15s-44-115.52-199.7-92.07c0,0-126.94,13.39-187.87,229.34,0,0-28.8,133.92-25.4,186.65s4.24,43.5,4.24,43.5,22-16.72,27.91-43.5S523.24,739,523.24,739l-16.08,92.07s19.45,13.38,38.92-42.69l4.25-79.51,3.38,82s31.3-7.52,38.07-43.52a345.88,345.88,0,0,0,5.93-66.14l4.24,41s22-19.25,17.77-55.24c0,0,5.93,56.09,31.29,15.9V637.72s0,61.94,24.55,21.75L679,627.66,684.86,657s66-48.55,109.18,8.36-36.39,126.39-36.39,126.39-90.55,73.66-97.32,73.66a52.26,52.26,0,0,0-12.71,1.68l4.24,12.57S537.62,1006,521.53,1021.91s-33,29.28-33,29.28-14.37,16.75,0,16.75a141.27,141.27,0,0,0,26.23-2.51L706,877.1l-190.4,198.37s-5.93,21.77-5.93,30.13,5.93,15.07,15.23.85S725.5,912.25,725.5,912.25s11,20.09,16.06,15.08,44.88-96.26,44.88-96.26S893.9,727.28,944.67,742.35c0,0,22,58.6-7.61,88.72,0,0-13.55,25.1-7.62,30.13s20.33,10,34.71-10c0,0-44,80.35,10.13,37.66,0,0-66,82,8.49,37.66,0,0-41.49,22.62-35.57,61.95,0,0,0,20.92,5.11,20.08s37.21-31,37.21-31-56.69,36.84-40.61,70.32l31.29-24.27s-61.76,44.35-61.76,63.6-2.52,30.13,5.93,30.13,38.07-43.52,38.07-43.52-71.93,65.28-40.61,95.43L961.61,1129s-58.37,47.15-25.2,67l1.48.84,25.4-36s-56.69,57.77-35.53,111.33L1111.39,1037s109.17-150.65,120.16-173.26,119.33-212.6-33-257.8c0,0-103.25,16.73-143.85-20.08S1073.32,477,1073.32,477L1174,375.73l15.24-18.41L1257,262.75l-73.63,34.3s-42.32,9.21-62.62,28.47-48.24,67-48.24,67l-60.93,82S973.45,554,933.67,553.17s-49.09-28.45-49.09-28.45Z"/><path class="cls-12" d="M880.35,507.15s-44-115.52-199.7-92.07c0,0-126.94,13.39-187.87,229.34,0,0-28.8,133.92-25.4,186.65s4.24,43.5,4.24,43.5,22-16.72,27.91-43.5S523.24,739,523.24,739l-16.08,92.07s19.45,13.38,38.92-42.69l4.25-79.51,3.38,82s31.3-7.52,38.07-43.52a345.88,345.88,0,0,0,5.93-66.14l4.24,41s22-19.25,17.77-55.24c0,0,5.93,56.09,31.29,15.9V637.72s0,61.94,24.55,21.75L679,627.66,684.86,657s66-48.55,109.18,8.36-36.39,126.39-36.39,126.39-90.55,73.66-97.32,73.66a52.26,52.26,0,0,0-12.71,1.68l4.24,12.57S537.62,1006,521.53,1021.91s-33,29.28-33,29.28-14.37,16.75,0,16.75a141.27,141.27,0,0,0,26.23-2.51L706,877.1l-190.4,198.37s-5.93,21.77-5.93,30.13,5.93,15.07,15.23.85S725.5,912.25,725.5,912.25s11,20.09,16.06,15.08,44.88-96.26,44.88-96.26S893.9,727.28,944.67,742.35c0,0,22,58.6-7.61,88.72,0,0-13.55,25.1-7.62,30.13s20.33,10,34.71-10c0,0-44,80.35,10.13,37.66,0,0-66,82,8.49,37.66,0,0-41.49,22.62-35.57,61.95,0,0,0,20.92,5.11,20.08s37.21-31,37.21-31-56.69,36.84-40.61,70.32l31.29-24.27s-61.76,44.35-61.76,63.6-2.52,30.13,5.93,30.13,38.07-43.52,38.07-43.52-71.93,65.28-40.61,95.43L961.61,1129s-58.37,47.15-25.2,67l1.48.84,25.4-36s-56.69,57.77-35.53,111.33L1111.39,1037s109.17-150.65,120.16-173.26,119.33-212.6-33-257.8c0,0-103.25,16.73-143.85-20.08S1073.32,477,1073.32,477L1174,375.73l15.24-18.41L1257,262.75l-73.63,34.3s-42.32,9.21-62.62,28.47-48.24,67-48.24,67l-60.93,82S973.45,554,933.67,553.17s-49.09-28.45-49.09-28.45Z"/><path class="cls-12" d="M1178.25,315.89a5.5,5.5,0,1,1,5.49,5.43A5.46,5.46,0,0,1,1178.25,315.89Z"/><path class="cls-12" d="M652.72,872.07s38.93-6.69,52.45,8.37S723,907.23,723,907.23"/><path class="cls-12" d="M1163.87,632.7s36.39,22.6,35.54,81.18"/><polygon class="cls-4" points="1157.46 709.03 1164.96 716.42 1156.26 725.01 1148.79 717.61 1157.46 709.03"/><path class="cls-12" d="M723.79,455.25s33-10,44.85,11.72"/><path class="cls-13" d="M699.25,558.2s-44.85,50.23-51.62,37.66,19.46-44.35,19.46-44.35-41.29,76.82-52.46,47.71C605.31,575,629,552.34,629,552.34s-13.55,76.18-52.46,66.11c-23.43-6,22.82-66.11,29.6-69.47,0,0-43.17,110.5-83.77,75.35,0,0,.85-34.31,21.16-46,0,0-33.86,67.8-45.7,67.8"/><polygon class="cls-14" points="590.93 1272.16 577.41 1298.95 552 1280.53 590.93 1272.16"/><path class="cls-14" d="M579.94,1273s-103.26-98-117.63-136.44c0,0-9.31,71.16-5.92,86.21l-71.1-10s27.93,46,44.84,66.13,59.26,46.86,59.26,46.86l53.3-40.17Z"/><polygon class="cls-14" points="1113.07 1274.69 1126.62 1301.47 1152.03 1283.03 1113.07 1274.69"/><path class="cls-14" d="M1124.09,1275.51s103.25-97.92,117.62-136.43c0,0,9.32,71.15,5.93,86.22l71.07-10s-27.91,46-44.84,66.14-59.23,46.85-59.23,46.85l-53.3-40.16Z"/><path class="cls-11" d="M998.83,1363.4c66.48-21,162.51-79.5,162.51-79.5l76.14,72.8c-108.32,97.94-317,120.28-357.86,122-119.56-2.71-326.78-35.39-413.1-124.49l76.17-72.81s96.79,56.24,162.48,79.5C761.89,1381,831.28,1386,831.28,1386s64.29,10.07,167.55-22.59"/><path class="cls-13" d="M998.83,1363.4c66.48-21,162.51-79.5,162.51-79.5l76.14,72.8c-108.32,97.94-317,120.28-357.86,122-119.56-2.71-326.78-35.39-413.1-124.49l76.17-72.81s96.79,56.24,162.48,79.5C761.89,1381,831.28,1386,831.28,1386S895.57,1396.06,998.83,1363.4Z"/><path class="cls-13" d="M1102.08,706.35s-49.1,67.81-12.71,64.45c0,0-14.8,31-8.45,36s22.44-5.84,26.65-12.14-24.11,25.53-11,44.79,18.62,8.36,18.62,8.36-10.17,28.45,3.38,26,24.13-17.15,24.13-17.15-33.44,19.24-22.45,48.54c0,0,8,13.8,20.74,3.35,0,0-21.16,24.27-3,42.26l21.16-16.32s-36.82,28.45-27.93,66.13l.42,5.87"/><path class="cls-15" d="M560.53,1386.13q3,7.15,12.78,12.1a33.11,33.11,0,0,0,12.23,3.81,16.7,16.7,0,0,0,10-2.19,18.06,18.06,0,0,0,8.86-16.2,16.06,16.06,0,0,0-3-8.1,57.05,57.05,0,0,0-9.4-9.38q-6.7-5.62-7.85-8.27a4.39,4.39,0,0,1,.05-3.89,4.27,4.27,0,0,1,3.3-2.35c2.36-.37,5.06.22,8.1,1.75s4.85,3.17,5.73,5.07.86,4.27,0,7.13l10.69,4.82a16.61,16.61,0,0,0,.64-13.9q-2.74-6.72-12.51-11.63a29.23,29.23,0,0,0-11.11-3.36,15.88,15.88,0,0,0-9.14,1.93,15,15,0,0,0-6.56,18.91q1.85,4.72,9.19,11,5.72,4.9,7.23,6.46a9.56,9.56,0,0,1,2.62,4.12l-.52,3.63a7.14,7.14,0,0,1-5.11,3.66q-3.64.82-8.71-1.73-4.77-2.4-6.35-6.19t.1-9.33L561,1369.87Q557.58,1379,560.53,1386.13Z"/><path class="cls-15" d="M638.19,1374.82a54.37,54.37,0,0,1,8.87,3.77,11.12,11.12,0,0,1,4.17,4.39,13,13,0,0,1,1.21,6.36,34.3,34.3,0,0,1-2.42,10,37.26,37.26,0,0,1-4.77,9.5,12.38,12.38,0,0,1-4.8,4.18,11,11,0,0,1-5.29.64,31.67,31.67,0,0,1-6.86-1.88l-8.24-3,13.18-35.8ZM605.68,1414l20.76,7.48a35.59,35.59,0,0,0,10.19,2.37,20.77,20.77,0,0,0,9.34-1.52,25.64,25.64,0,0,0,9.37-7.44,37.84,37.84,0,0,0,5.91-10.9,42.19,42.19,0,0,0,2.91-13.42,24.81,24.81,0,0,0-2-10.63,19.24,19.24,0,0,0-6.41-8,42,42,0,0,0-10-4.77l-20.16-7.26Z"/><polygon class="cls-15" points="673.42 1436.96 676.49 1426.36 665.78 1423.32 662.7 1433.92 673.42 1436.96"/><path class="cls-15" d="M714,1442q5,5.9,15.93,7.6a33.11,33.11,0,0,0,12.83-.11,16.72,16.72,0,0,0,8.77-5.12,18,18,0,0,0,3.37-18.12,16.21,16.21,0,0,0-5.43-6.77,57.2,57.2,0,0,0-11.86-6q-8.15-3.3-10.05-5.47a4.35,4.35,0,0,1-1.17-3.72,4.22,4.22,0,0,1,2.41-3.24q3.18-1.6,8.24-.81,4.89.77,7,3.07c1.43,1.53,2.15,3.8,2.18,6.8l11.68,1.31a16.66,16.66,0,0,0-3.73-13.42q-4.73-5.54-15.53-7.24a29.4,29.4,0,0,0-11.62.21,15.77,15.77,0,0,0-8.09,4.63,14.66,14.66,0,0,0-3.79,7.73,14.83,14.83,0,0,0,3.46,12.26q3.23,3.93,12.18,7.67c4.64,1.94,7.61,3.26,8.89,3.93a9.71,9.71,0,0,1,3.78,3.12,5.23,5.23,0,0,1,.65,3.61,7.07,7.07,0,0,1-3.72,5q-3.23,1.91-8.82,1c-3.53-.56-6.19-1.87-8-4s-2.74-5-2.82-8.9l-11.45-.68Q709,1436.05,714,1442Z"/><polygon class="cls-15" points="790.03 1454.41 793.4 1406.74 810.58 1407.93 811.26 1398.22 765.16 1395.03 764.48 1404.74 781.69 1405.93 778.32 1453.6 790.03 1454.41"/><rect class="cls-15" x="808.65" y="1444.16" width="11.15" height="11.03"/><polygon class="cls-15" points="866.53 1454.07 863.34 1408.91 878.01 1453.28 889.29 1452.5 897.61 1406.54 900.8 1451.7 911.68 1450.95 907.63 1393.57 890.06 1394.79 882.42 1434.64 869.12 1396.24 851.59 1397.45 855.65 1454.83 866.53 1454.07"/><polygon class="cls-15" points="936.18 1447.85 929.09 1390.76 917.44 1392.17 924.53 1449.26 936.18 1447.85"/><polygon class="cls-15" points="958.89 1444.65 956.14 1427.48 964.03 1416.52 984.08 1440.7 999.09 1438.35 970.73 1407.24 988.82 1381.73 973.22 1384.17 953.83 1413.07 949.79 1387.84 938.2 1389.66 947.29 1446.46 958.89 1444.65"/><path class="cls-15" d="M1016.78,1411l2.8-22.54,12.66,19Zm5.93-37-12.1,2.76-9,61.08,12.14-2.77,1.71-13.8,22.65-5.17,7.91,11.6,12.45-2.84Z"/><polygon class="cls-15" points="1109.16 1410.59 1106.29 1401.33 1075.22 1410.72 1070.6 1395.75 1098.52 1387.31 1095.65 1378.04 1067.73 1386.48 1063.96 1374.29 1093.97 1365.22 1091.09 1355.91 1049.86 1368.38 1066.86 1423.38 1109.16 1410.59"/><polygon class="cls-15" points="1158.29 1390.01 1154.15 1381.23 1127.69 1393.43 1107.45 1350.52 1096.81 1355.42 1121.19 1407.13 1158.29 1390.01"/><path class="cls-15" d="M228.73,401.69a6.78,6.78,0,1,1,6.78,6.69,6.75,6.75,0,0,1-6.78-6.69"/><path class="cls-4" d="M228.73,401.69a6.78,6.78,0,1,1,6.78,6.69A6.75,6.75,0,0,1,228.73,401.69Z"/></g></g></svg>